<?xml version="1.0" encoding="UTF-8"?>
<svg xmlns="http://www.w3.org/2000/svg" xmlns:xlink="http://www.w3.org/1999/xlink" width="375pt" height="374.999991pt" viewBox="0 0 375 374.999991" version="1.2">
<g id="surface1">
<path style=" stroke:none;fill-rule:nonzero;fill:rgb(0%,0%,0%);fill-opacity:1;" d="M 281.1875 267.609375 C 278.371094 264.230469 276.867188 259.910156 277.054688 255.59375 C 277.054688 255.59375 278.558594 223.480469 278.558594 223.480469 C 278.746094 218.785156 273.113281 214.28125 269.355469 212.589844 C 269.355469 212.589844 244.757812 202.261719 244.382812 202.074219 L 242.878906 181.042969 C 242.878906 181.042969 263.535156 189.679688 263.535156 189.679688 C 264.851562 190.242188 266.164062 190.621094 267.480469 190.621094 C 267.480469 190.621094 303.535156 190.808594 303.722656 190.808594 C 305.789062 190.808594 307.476562 189.117188 307.476562 187.050781 C 307.476562 184.984375 305.789062 183.296875 303.722656 183.296875 L 267.855469 183.109375 C 267.292969 183.109375 266.917969 182.921875 266.539062 182.730469 L 242.316406 172.59375 L 242.128906 169.023438 C 242.128906 165.082031 240.25 161.511719 237.058594 159.257812 C 236.683594 157.945312 236.308594 156.441406 235.746094 155.128906 L 263.722656 147.242188 C 268.980469 145.738281 273.300781 141.796875 274.992188 136.726562 L 288.699219 98.042969 C 289.449219 96.164062 288.324219 93.910156 286.445312 93.160156 C 284.566406 92.410156 282.3125 93.535156 281.5625 95.414062 L 267.855469 134.097656 C 266.917969 136.914062 264.476562 139.167969 261.660156 139.917969 L 232.925781 147.992188 C 228.796875 138.601562 223.351562 130.714844 217.152344 124.707031 C 217.90625 124.144531 218.46875 123.582031 219.03125 122.828125 C 221.097656 120.199219 221.847656 116.445312 221.097656 113.066406 C 218.09375 101.046875 209.832031 91.84375 199.691406 87.714844 C 210.582031 75.882812 205.136719 61.613281 204.949219 61.425781 C 204.195312 59.546875 201.945312 58.609375 200.066406 59.359375 C 198.1875 60.109375 197.25 62.363281 198 64.242188 C 198.1875 64.804688 202.695312 76.636719 190.863281 85.460938 C 189.363281 85.460938 188.421875 85.460938 187.296875 85.460938 C 186.167969 85.460938 185.230469 85.460938 184.105469 85.648438 C 172.648438 77.011719 176.40625 65.742188 176.96875 64.242188 C 177.71875 62.363281 176.78125 60.109375 174.902344 59.359375 C 173.023438 58.609375 170.773438 59.546875 170.019531 61.425781 C 170.019531 61.613281 164.386719 75.882812 175.277344 87.714844 C 164.949219 91.84375 156.875 101.046875 153.871094 113.066406 C 152.933594 116.445312 153.683594 120.011719 155.9375 122.828125 C 156.5 123.582031 157.0625 124.144531 157.816406 124.707031 C 151.429688 130.714844 146.171875 138.601562 142.039062 147.992188 L 113.121094 139.917969 C 110.304688 139.167969 107.863281 136.914062 106.925781 134.097656 L 93.21875 95.414062 C 92.464844 93.535156 90.402344 92.410156 88.335938 93.160156 C 86.457031 93.910156 85.332031 95.976562 86.082031 98.042969 L 99.789062 136.726562 C 101.667969 141.796875 105.800781 145.925781 111.058594 147.242188 L 139.035156 155.128906 C 138.660156 156.441406 138.097656 157.757812 137.722656 159.257812 C 134.53125 161.511719 132.652344 165.082031 132.652344 169.023438 C 132.652344 169.023438 132.652344 169.023438 132.652344 169.210938 L 132.464844 172.78125 L 108.238281 182.921875 C 107.863281 183.109375 107.300781 183.296875 106.925781 183.296875 L 70.871094 183.109375 C 68.804688 183.109375 67.117188 184.796875 67.117188 186.863281 C 67.117188 188.929688 68.804688 190.621094 70.871094 190.621094 C 70.871094 190.621094 106.925781 190.429688 106.925781 190.429688 C 108.238281 190.429688 109.742188 190.054688 110.867188 189.492188 L 131.523438 180.855469 L 130.210938 201.886719 C 129.460938 202.261719 105.234375 212.402344 105.234375 212.402344 C 101.480469 213.902344 95.847656 218.785156 96.035156 223.292969 L 97.535156 255.402344 C 97.722656 259.910156 96.222656 264.042969 93.40625 267.421875 L 68.242188 293.148438 C 66.738281 294.652344 66.738281 297.09375 68.242188 298.40625 C 69.746094 299.722656 72.1875 299.910156 73.5 298.40625 L 98.851562 272.679688 C 98.851562 272.679688 99.039062 272.492188 99.039062 272.492188 C 103.167969 267.609375 105.421875 261.414062 105.046875 255.027344 L 103.734375 223.667969 C 104.671875 221.601562 106.363281 220.101562 108.429688 219.160156 L 129.835938 210.148438 L 129.460938 215.59375 C 127.957031 237.941406 134.90625 259.347656 148.800781 274.183594 C 159.503906 285.636719 173.210938 291.832031 187.484375 291.832031 C 201.753906 291.832031 215.464844 285.449219 226.167969 274.183594 C 240.0625 259.347656 247.011719 237.941406 245.507812 215.59375 L 245.132812 210.148438 L 266.539062 219.160156 C 268.605469 220.101562 270.296875 221.601562 271.234375 223.667969 L 269.921875 255.027344 C 269.546875 261.414062 271.796875 267.609375 275.929688 272.492188 C 275.929688 272.492188 276.117188 272.679688 276.117188 272.679688 C 276.117188 272.679688 301.28125 298.40625 301.46875 298.40625 C 302.96875 299.910156 305.410156 299.910156 306.726562 298.40625 C 308.226562 296.902344 308.226562 294.652344 306.726562 293.148438 Z M 161.195312 114.941406 C 164.386719 101.984375 175.089844 92.972656 187.296875 92.972656 C 199.503906 92.972656 210.207031 101.984375 213.398438 114.941406 C 213.773438 116.632812 212.835938 119.261719 210.769531 119.261719 L 210.207031 119.261719 C 203.257812 114.378906 195.371094 111.75 187.296875 111.75 C 179.222656 111.75 171.335938 114.378906 164.386719 119.261719 L 163.824219 119.261719 C 161.570312 119.261719 160.632812 116.632812 161.195312 114.941406 Z M 183.539062 284.324219 C 172.648438 283.382812 162.320312 278.125 154.058594 269.113281 C 141.851562 255.96875 135.28125 236.0625 136.78125 216.15625 C 136.78125 216.15625 140.164062 169.210938 140.164062 169.210938 C 140.351562 165.457031 144.292969 162.640625 147.675781 165.082031 L 183.539062 189.304688 Z M 187.296875 182.730469 L 151.804688 158.882812 C 150.117188 157.757812 148.238281 157.195312 146.359375 156.816406 C 154.433594 134.285156 170.019531 119.261719 187.296875 119.261719 C 204.574219 119.261719 220.160156 134.097656 228.234375 157.007812 C 226.355469 157.195312 224.476562 157.945312 222.789062 159.070312 Z M 220.535156 269.113281 C 212.273438 277.9375 201.945312 283.195312 191.050781 284.324219 L 191.050781 189.304688 C 191.050781 189.304688 226.730469 165.269531 226.917969 165.082031 C 230.296875 162.828125 234.242188 165.644531 234.429688 169.210938 L 237.808594 216.15625 C 239.3125 236.25 232.738281 255.96875 220.535156 269.113281 Z M 220.535156 269.113281 "/>
<path style=" stroke:none;fill-rule:nonzero;fill:rgb(0%,0%,0%);fill-opacity:1;" d="M 177.90625 107.996094 C 177.90625 108.492188 177.8125 108.972656 177.621094 109.433594 C 177.429688 109.890625 177.160156 110.296875 176.808594 110.652344 C 176.457031 111.003906 176.050781 111.273438 175.589844 111.464844 C 175.128906 111.65625 174.648438 111.75 174.152344 111.75 C 173.652344 111.75 173.175781 111.65625 172.714844 111.464844 C 172.253906 111.273438 171.847656 111.003906 171.496094 110.652344 C 171.144531 110.296875 170.871094 109.890625 170.683594 109.433594 C 170.492188 108.972656 170.394531 108.492188 170.394531 107.996094 C 170.394531 107.496094 170.492188 107.019531 170.683594 106.558594 C 170.871094 106.097656 171.144531 105.691406 171.496094 105.339844 C 171.847656 104.988281 172.253906 104.714844 172.714844 104.523438 C 173.175781 104.335938 173.652344 104.238281 174.152344 104.238281 C 174.648438 104.238281 175.128906 104.335938 175.589844 104.523438 C 176.050781 104.714844 176.457031 104.988281 176.808594 105.339844 C 177.160156 105.691406 177.429688 106.097656 177.621094 106.558594 C 177.8125 107.019531 177.90625 107.496094 177.90625 107.996094 Z M 177.90625 107.996094 "/>
<path style=" stroke:none;fill-rule:nonzero;fill:rgb(0%,0%,0%);fill-opacity:1;" d="M 204.195312 107.996094 C 204.195312 108.492188 204.101562 108.972656 203.910156 109.433594 C 203.71875 109.890625 203.449219 110.296875 203.097656 110.652344 C 202.746094 111.003906 202.339844 111.273438 201.878906 111.464844 C 201.417969 111.65625 200.9375 111.75 200.441406 111.75 C 199.941406 111.75 199.464844 111.65625 199.003906 111.464844 C 198.542969 111.273438 198.136719 111.003906 197.785156 110.652344 C 197.433594 110.296875 197.160156 109.890625 196.972656 109.433594 C 196.78125 108.972656 196.683594 108.492188 196.6875 107.996094 C 196.683594 107.496094 196.78125 107.019531 196.972656 106.558594 C 197.160156 106.097656 197.433594 105.691406 197.785156 105.339844 C 198.136719 104.988281 198.542969 104.714844 199.003906 104.523438 C 199.464844 104.335938 199.941406 104.238281 200.441406 104.238281 C 200.9375 104.238281 201.417969 104.335938 201.878906 104.523438 C 202.339844 104.714844 202.746094 104.988281 203.097656 105.339844 C 203.449219 105.691406 203.71875 106.097656 203.910156 106.558594 C 204.101562 107.019531 204.195312 107.496094 204.195312 107.996094 Z M 204.195312 107.996094 "/>
<path style=" stroke:none;fill-rule:nonzero;fill:rgb(0%,0%,0%);fill-opacity:1;" d="M 187.355469 369.753906 C 138.65625 369.753906 92.800781 350.800781 58.390625 316.316406 C 23.910156 281.90625 4.953125 236.050781 4.953125 187.355469 C 4.953125 138.65625 23.910156 92.800781 58.390625 58.390625 C 92.800781 23.910156 138.65625 4.953125 187.355469 4.953125 C 236.050781 4.953125 281.90625 23.910156 316.316406 58.390625 C 350.800781 92.875 369.753906 138.65625 369.753906 187.355469 C 369.753906 236.050781 350.800781 281.90625 316.316406 316.316406 C 281.90625 350.800781 236.050781 369.753906 187.355469 369.753906 Z M 187.355469 15.890625 C 141.570312 15.890625 98.488281 33.75 66.117188 66.117188 C 33.75 98.488281 15.890625 141.570312 15.890625 187.355469 C 15.890625 233.136719 33.75 276.222656 66.117188 308.589844 C 98.488281 340.957031 141.570312 358.820312 187.355469 358.820312 C 233.136719 358.820312 276.222656 340.957031 308.589844 308.589844 C 340.957031 276.222656 358.820312 233.136719 358.820312 187.355469 C 358.820312 141.570312 340.957031 98.488281 308.589844 66.117188 C 276.222656 33.75 233.136719 15.890625 187.355469 15.890625 Z M 187.355469 15.890625 "/>
<path style="fill:none;stroke-width:1;stroke-linecap:round;stroke-linejoin:miter;stroke:rgb(0%,0%,0%);stroke-opacity:1;stroke-miterlimit:4;" d="M 0.49997 -0.0000644555 L 32.930108 -0.0000644555 " transform="matrix(7.424373,-7.424373,7.457915,7.457915,63.315864,310.431191)"/>
</g>
</svg>
